<?xml version="1.0" standalone="no"?>
<!DOCTYPE svg PUBLIC "-//W3C//DTD SVG 20010904//EN"
 "http://www.w3.org/TR/2001/REC-SVG-20010904/DTD/svg10.dtd">
<svg version="1.0" xmlns="http://www.w3.org/2000/svg"
 width="512.000000pt" height="512.000000pt" viewBox="0 0 512.000000 512.000000"
 preserveAspectRatio="xMidYMid meet">
<metadata>
Created by potrace 1.16, written by Peter Selinger 2001-2019
</metadata>
<g transform="translate(0.000000,512.000000) scale(0.100000,-0.100000)"
fill="#000000" stroke="none">
<path d="M2397 5104 c-220 -53 -410 -245 -462 -467 -19 -80 -19 -234 0 -314
53 -225 243 -415 467 -468 81 -19 235 -19 315 0 225 53 415 243 468 468 19 80
19 235 0 316 -53 224 -243 413 -468 466 -77 18 -243 18 -320 -1z"/>
<path d="M2397 3184 c-220 -53 -410 -245 -462 -467 -19 -80 -19 -234 0 -314
53 -225 243 -415 467 -468 81 -19 235 -19 315 0 225 53 415 243 468 468 19 80
19 235 0 316 -53 224 -243 413 -468 466 -77 18 -243 18 -320 -1z"/>
<path d="M2397 1264 c-220 -53 -410 -245 -462 -467 -19 -80 -19 -234 0 -314
53 -225 243 -415 467 -468 81 -19 235 -19 315 0 225 53 415 243 468 468 19 80
19 235 0 316 -53 224 -243 413 -468 466 -77 18 -243 18 -320 -1z"/>
</g>
</svg>
