<svg version="1.0" xmlns="http://www.w3.org/2000/svg" width="682.667" height="682.667" viewBox="0 0 512 512"><path fill="#ffffff" d="M239.7 1.6c-22 5.3-41 24.5-46.2 46.7-1.9 8-1.9 23.4 0 31.4 5.3 22.5 24.3 41.5 46.7 46.8 8.1 1.9 23.5 1.9 31.5 0 22.5-5.3 41.5-24.3 46.8-46.8 1.9-8 1.9-23.5 0-31.6-5.3-22.4-24.3-41.3-46.8-46.6-7.7-1.8-24.3-1.8-32 .1zm0 192c-22 5.3-41 24.5-46.2 46.7-1.9 8-1.9 23.4 0 31.4 5.3 22.5 24.3 41.5 46.7 46.8 8.1 1.9 23.5 1.9 31.5 0 22.5-5.3 41.5-24.3 46.8-46.8 1.9-8 1.9-23.5 0-31.6-5.3-22.4-24.3-41.3-46.8-46.6-7.7-1.8-24.3-1.8-32 .1zm0 192c-22 5.3-41 24.5-46.2 46.7-1.9 8-1.9 23.4 0 31.4 5.3 22.5 24.3 41.5 46.7 46.8 8.1 1.9 23.5 1.9 31.5 0 22.5-5.3 41.5-24.3 46.8-46.8 1.9-8 1.9-23.5 0-31.6-5.3-22.4-24.3-41.3-46.8-46.6-7.7-1.8-24.3-1.8-32 .1z"/></svg>