<svg version="1.0" xmlns="http://www.w3.org/2000/svg" width="682.667" height="682.667" viewBox="0 0 512 512"><path d="M239.7 1.6c-22 5.3-41 24.5-46.2 46.7-1.9 8-1.9 23.4 0 31.4 5.3 22.5 24.3 41.5 46.7 46.8 8.1 1.9 23.5 1.9 31.5 0 22.5-5.3 41.5-24.3 46.8-46.8 1.9-8 1.9-23.5 0-31.6-5.3-22.4-24.3-41.3-46.8-46.6-7.7-1.8-24.3-1.8-32 .1zm0 192c-22 5.3-41 24.5-46.2 46.7-1.9 8-1.9 23.4 0 31.4 5.3 22.5 24.3 41.5 46.7 46.8 8.1 1.9 23.5 1.9 31.5 0 22.5-5.3 41.5-24.3 46.8-46.8 1.9-8 1.9-23.5 0-31.6-5.3-22.4-24.3-41.3-46.8-46.6-7.7-1.8-24.3-1.8-32 .1zm0 192c-22 5.3-41 24.5-46.2 46.7-1.9 8-1.9 23.4 0 31.4 5.3 22.5 24.3 41.5 46.7 46.8 8.1 1.9 23.5 1.9 31.5 0 22.5-5.3 41.5-24.3 46.8-46.8 1.9-8 1.9-23.5 0-31.6-5.3-22.4-24.3-41.3-46.8-46.6-7.7-1.8-24.3-1.8-32 .1z"/></svg> -53 -410 -245 -462 -467 -19 -80 -19 -234 0 -314
53 -225 243 -415 467 -468 81 -19 235 -19 315 0 225 53 415 243 468 468 19 80
19 235 0 316 -53 224 -243 413 -468 466 -77 18 -243 18 -320 -1z"/>
<path d="M2397 1264 c-220 -53 -410 -245 -462 -467 -19 -80 -19 -234 0 -314
53 -225 243 -415 467 -468 81 -19 235 -19 315 0 225 53 415 243 468 468 19 80
19 235 0 316 -53 224 -243 413 -468 466 -77 18 -243 18 -320 -1z"/>
</g>
</svg>
